# xmcd CD database file
#
# Track frame offsets:
#	150
#	28006
#	55465
#	75874
#	104376
#	131572
#	156979
#	191519
#	222201
#	252314
#
# Disc length: 3774 seconds
#
# Revision: 0
# Processed by: cddbd v1.5.2PL0 Copyright (c) Steve Scherf et al.
# Submitted via: CDex 1.70beta2
#
DISCID=840ebc0a
DTITLE=Jai Uttal - Dail M for Mantra
DYEAR=2007
DGENRE=New Age
TTITLE0=Ganeesha Windmix
TTITLE1=Govinda Jaya
TTITLE2=Jai's Dub Shack
TTITLE3=Maha Dev
TTITLE4=Nataraj Black Phone
TTITLE5=Radhe Govinda
TTITLE6=Shri Krishna Govinda
TTITLE7=Dina Dayal
TTITLE8=Hari Om
TTITLE9=Gopala's Dream
EXTD=YEAR: 2007
EXTT0=
EXTT1=
EXTT2=
EXTT3=
EXTT4=
EXTT5=
EXTT6=
EXTT7=
EXTT8=
EXTT9=
PLAYORDER=
